# xmcd
#
# Track frame offsets:
#	150
#	17410
#	35902
#	52085
#	78862
#	97477
#	111602
#	126902
#	146800
#	163005
#	179652
#	194170
#
# Disc length: 2903 seconds
#
# Revision: 1
# Processed by: cddbd v1.4PL0 Copyright (c) Steve Scherf et al.
# Submitted via: audiograbber 1.81.02
#
DISCID=bf0b550c
DTITLE=Barbara Blue - Sell My Jewelry
DYEAR=2001
DGENRE=Blues
TTITLE0=Trouble With A Capital 'T'
TTITLE1=Back By Popular Demand
TTITLE2=Tool Box Blues
TTITLE3=Don't Lead Me On
TTITLE4=Road Blues
TTITLE5=Can't Get Your Lovin' Off My Mind
TTITLE6=Sell My Jewelry
TTITLE7=From The Delta To The Golden Gate
TTITLE8=Cheatin' Blues
TTITLE9=Drunken Angel
TTITLE10=Brought Together By The Blues
TTITLE11=Turtle Blues
EXTD=Big Blue Records 1201\n© 2001
EXTT0=
EXTT1=
EXTT2=
EXTT3=
EXTT4=
EXTT5=
EXTT6=
EXTT7=
EXTT8=
EXTT9=
EXTT10=
EXTT11=
PLAYORDER=
